<svg viewBox="0 0 2907 1035" xmlns="http://www.w3.org/2000/svg">
    <path d="M649.541 580.491C640.665 564.158 631.791 547.85 623.041 531.458C621.666 528.929 619.957 527.716 617.165 527.304C611.957 526.541 606.791 525.512 601.666 524.462C599.624 524.045 598.291 524.395 597.207 526.304C595.749 528.858 594.04 531.249 592.165 534.104C583.957 529.074 576.124 524.258 567.916 519.233C571.624 513.112 575.249 507.124 578.874 501.133C579.416 500.258 580.374 499.399 580.416 498.512C580.457 496.941 579.915 495.354 579.665 493.774C578.124 494.274 575.916 494.312 575.207 495.362C571.374 500.983 568.041 506.924 564.332 512.604C563.291 514.149 561.457 515.141 560.082 516.474C559.499 517.049 558.499 518.124 558.707 518.487C560.166 521.504 557.832 523.279 556.624 525.345C553.582 530.416 550.457 535.408 547.374 540.437C546.082 542.491 544.791 544.82 547.582 546.408C550.041 547.783 551.499 545.995 552.749 543.904C556.582 537.424 560.582 531.024 564.665 524.333C572.79 529.283 580.624 534.074 588.874 539.108C586.541 542.808 584.332 546.333 581.874 550.204C587.249 556.358 592.666 562.616 598.082 568.854C602.916 574.37 607.666 579.912 612.624 585.324C614.124 586.97 614.499 588.204 613.332 590.329C607.707 600.841 602.332 611.491 596.707 622.004C596.124 623.091 594.499 624.304 593.374 624.304C570.416 624.404 547.416 624.333 524.416 624.283C524.082 624.283 523.707 624.095 522.832 623.85V607.137C522.832 594.65 516.665 588.395 504.207 588.387C476.749 588.375 449.249 588.387 421.791 588.387H417.457V410.279H421.54C466.957 410.279 512.415 410.308 557.874 410.208C560.749 410.204 562.082 411.22 563.374 413.679C586.291 457.549 609.29 501.37 632.249 545.2C639.374 558.816 646.541 572.42 653.707 586.037C654.374 587.345 654.957 588.695 654.999 590.333C653.166 587.054 651.332 583.787 649.541 580.491ZM554.749 662.091C548.957 662.195 543.207 662.012 537.457 662.145C534.624 662.212 533.624 661.187 533.582 658.35C533.332 646.545 533.249 646.55 545.124 646.55H549.749C553.832 646.558 557.957 646.654 562.04 646.52C564.79 646.433 566.041 647.42 565.957 650.287C565.666 664.554 567.915 661.854 554.749 662.091ZM505.082 662.9C504.999 666.795 501.874 669.333 497.915 669.625C495.499 669.804 493.082 669.658 489.874 669.658C494.874 656.512 499.624 643.983 504.374 631.45L505.165 631.641C505.165 642.062 505.332 652.487 505.082 662.9ZM480.957 666.829C480.166 668.937 479.166 669.925 476.832 669.745C474.291 669.554 471.749 669.704 468.415 669.704C471.082 662.658 473.457 656.337 475.832 650.02C481.291 635.662 486.707 621.295 492.165 606.941C492.749 605.345 492.915 603.045 495.499 603.666C498.124 604.304 500.665 605.241 503.165 606.279C503.415 606.383 503.207 608.158 502.874 609.033C495.582 628.304 488.207 647.545 480.957 666.829ZM454.082 669.75C451.957 669.545 449.79 669.708 447.04 669.708C448.04 666.983 448.832 664.858 449.624 662.745C456.624 644.154 463.707 625.591 470.582 606.95C471.541 604.316 472.79 603.308 475.54 603.566C477.915 603.791 480.332 603.612 483.332 603.612C480.29 611.737 477.415 619.379 474.54 627.016C469.624 639.966 464.624 652.862 459.957 665.891C458.79 669.062 457.166 670.05 454.082 669.75ZM433.207 669.75C430.957 669.47 428.624 669.695 425.499 669.695C428.582 661.612 431.374 654.212 434.166 646.812C439.124 633.745 444.166 620.72 448.874 607.575C450.041 604.325 451.624 603.108 454.999 603.562C456.999 603.837 459.082 603.612 461.665 603.612C461.207 605.12 460.915 606.295 460.499 607.42C453.124 626.958 445.666 646.475 438.374 666.05C437.416 668.695 436.249 670.12 433.207 669.75ZM419.374 659.579C417.124 655.333 414.874 651.083 412.624 646.854C414.249 642.587 415.832 638.35 417.457 634.125C420.832 625.154 424.29 616.2 427.582 607.179C428.54 604.537 429.749 603.17 432.79 603.558C435.04 603.845 437.374 603.616 440.207 603.616C439.707 605.245 439.374 606.55 438.916 607.795C432.374 625.054 425.79 642.283 419.374 659.579ZM409.915 627.575C408.874 630.35 407.832 633.125 406.79 635.895C404.54 631.695 402.29 627.491 400.082 623.27C402.207 617.629 404.374 611.991 406.499 606.341C407.207 604.425 408.041 603.375 410.291 603.562C412.957 603.783 415.624 603.612 418.999 603.612C415.79 612.05 412.874 619.808 409.915 627.575ZM394.332 612.116C392.874 609.312 391.457 606.495 390.041 603.679L390.374 603.625C392.54 603.566 394.707 603.616 397.54 603.616C396.457 606.487 395.374 609.283 394.332 612.116ZM743.291 323.283C742.874 316.191 736.958 310.708 730.083 310.908C723.249 311.108 717.916 316.583 717.707 323.658C717.666 325.453 717.665 327.253 717.665 329.049V643.879C706.332 643.879 695.541 643.908 684.791 643.816C684.041 643.812 683.332 642.9 682.624 642.408C683.291 642.012 683.957 641.308 684.666 641.275C687.416 641.141 690.207 641.22 693.707 641.22C657.415 572.266 621.457 503.87 585.249 435.029C588.332 435.637 590.749 436.112 593.29 436.616V403.333C584.374 403.933 578.541 408.258 575.957 417.324C573.582 412.862 571.374 409.099 569.582 405.154C568.374 402.595 566.874 401.712 563.999 401.72C513.041 401.816 462.082 401.791 411.082 401.791H406.624V588.383C398.374 588.383 390.541 588.387 382.749 588.383C381.041 588.383 379.499 588.512 378.041 588.704C377.541 588.658 377.124 588.562 376.582 588.566C341.707 588.737 306.874 588.662 271.999 588.662V588.62C237.29 588.62 202.624 588.729 167.957 588.508C162.624 588.475 160.457 589.704 161.29 595.341C162.582 604.2 163.374 613.112 165.832 621.8C171.749 642.7 183.499 658.258 204.999 664.645C208.707 665.741 210.04 667.508 210.957 670.77C213.582 680.341 217.415 689.42 223.498 697.333C234.79 712.108 248.874 723.366 268.166 723.67C309.207 724.312 350.29 723.858 391.332 723.937C395.165 723.941 396.041 723 394.082 719.458C390.874 713.637 387.832 707.741 384.749 701.854C373.041 701.812 361.374 701.737 349.665 701.65C326.957 701.483 304.249 701.458 281.499 701.12C259.04 700.791 241.79 691.975 232.499 671.762C230.665 667.808 228.623 663.929 236.415 663.87C277.04 663.55 317.665 663.941 358.29 663.533C360.123 663.516 361.957 663.525 363.79 663.516L363.707 663.354C360.249 657.187 357.124 650.825 354.041 644.47C353.707 643.8 353.332 643.266 352.957 642.741C310.665 642.783 268.415 642.395 226.165 643.087C211.04 643.337 191.582 630.025 186.998 616.204C184.29 607.991 184.373 607.395 192.832 607.395C246.124 607.383 299.415 607.375 352.707 607.37H360.291L384.04 653.416L384.249 654.433C393.582 673.262 402.957 692.066 412.249 710.916C412.832 712.087 413.374 713.262 413.957 714.429C419.916 696.154 438.29 682.691 457.957 683.895C482.207 685.383 499.04 704.341 500.082 725.921H570.457C567.749 695.537 576.999 670.379 603.332 654.033C629.874 637.562 656.582 641.033 682.29 657.329C682.54 655.704 682.707 654.487 682.874 653.337H717.791V751.508H743.291V747.362C743.332 608.312 743.332 469.262 743.332 330.212C743.332 327.903 743.416 325.587 743.291 323.283Z" />
    <path d="M272 230.734V466.664H314.917V273.664H903.292V632.989C903.292 744.143 847.001 845.664 753.584 904.031L609.084 984.968L465.5 904.556C414.875 872.939 375.333 828.972 349.458 777.889H302.083C330.875 844.181 379.375 901.368 443.625 941.489L609.084 1034.16L775.459 940.964C882.376 874.181 946.209 759.043 946.209 632.989V230.734H272Z" fill="#F7931D"/>
    <path d="M679.831 712.014C679.414 691.01 661.956 674.043 641.331 674.556C619.747 675.089 603.456 692.364 603.956 714.177C604.414 734.402 621.914 750.952 642.539 750.652C663.289 750.352 680.247 732.76 679.831 712.014ZM705.289 714.527C704.039 750.568 673.831 777.972 638.081 775.981C602.706 774.006 576.498 743.822 578.581 707.781C580.456 674.36 611.373 647.093 644.664 649.131C681.414 651.385 706.331 681.502 705.289 714.527Z" />
    <path d="M749.582 345.41H756.582V744.423H761.124C784.249 744.423 807.332 744.119 830.457 744.573C839.499 744.748 848.499 746.548 857.499 747.827C858.416 747.96 859.124 749.623 859.915 750.573L859.249 751.461H749.582V345.41Z" />
    <path d="M517.79 582.335C517.623 583.326 517.457 584.41 517.248 585.61H450.874C447.79 557.81 444.707 530.068 441.582 501.864H450.623C450.915 498.805 450.999 496.139 451.415 493.53C451.957 490.301 453.415 487.705 457.124 487.18C460.832 486.651 463.373 488.718 464.207 491.797C465.957 498.451 467.957 505.26 468.165 512.047C468.54 528.576 467.957 545.13 467.79 561.672C467.748 563.968 467.79 566.26 467.79 568.98C473.707 568.08 479.54 566.805 485.457 566.38C496.04 565.618 506.665 565.33 517.29 564.943C518.79 564.889 520.332 565.285 521.832 565.685C524.915 566.526 528.415 567.272 529.123 571.035C529.915 575.272 527.373 578.568 524.457 581.03C523.04 582.214 520.373 581.893 517.79 582.335Z" />
    <path d="M654.873 712.83C654.79 720.013 648.957 725.747 641.79 725.676C634.457 725.605 628.582 719.618 628.665 712.326C628.748 705.318 634.873 699.388 641.873 699.468C649.29 699.551 654.957 705.363 654.873 712.83Z" />
    <path d="M480.873 726.813C480.581 714.18 470.123 703.98 457.707 704.284C444.706 704.605 434.915 714.997 435.206 728.113C435.498 740.276 446.04 750.226 458.415 750.047C470.915 749.867 481.123 739.288 480.873 726.813ZM496.165 728.326C495.415 749.997 477.248 766.48 455.748 765.28C434.456 764.092 418.706 745.942 419.956 724.267C421.081 704.167 439.665 687.767 459.706 688.997C481.79 690.351 496.79 708.463 496.165 728.326Z" />
    <path d="M465.833 727.306C465.791 731.622 462.291 735.072 457.957 735.031C453.582 734.985 450.041 731.389 450.082 726.997C450.124 722.785 453.791 719.218 458.041 719.268C462.499 719.318 465.874 722.814 465.833 727.306Z" />
    <path d="M1169.03 654.798C1159.69 668.477 1143.15 676.522 1123.94 676.522C1088.57 676.522 1064.78 652.31 1064.78 616.268C1064.78 580.231 1088.57 556.018 1123.94 556.018C1142.9 556.018 1159.44 564.072 1168.98 577.764L1198.94 560.401C1182.48 536.456 1154.78 522.289 1123.94 522.289C1070.36 522.289 1029.98 562.693 1029.98 616.268C1029.98 669.847 1070.36 710.247 1123.94 710.247C1155.03 710.247 1182.78 696.089 1198.98 672.156L1169.03 654.798Z" />
    <path d="M1229.28 706.475H1264.07V559.254H1329.03V706.475H1363.82V526.062H1229.28V706.475Z" />
    <path d="M1439.36 631.513H1506.74V598.867H1439.36V559.254H1513.49V526.062H1404.53V706.475H1514.86V673.283H1439.36V631.513Z" />
    <path d="M1682.03 526.062H1647.24V673.283H1582.28V526.062H1547.45V706.475H1667.45V742.604H1702.28V673.283H1682.03V526.062Z" />
    <path d="M1823.74 613.742L1770.15 526.062H1733.53V706.475H1768.32V586.054L1823.82 676.817L1879.11 586.054V706.475H1913.94V526.062H1877.32L1823.74 613.742Z" />
    <path d="M1998.15 644.7L2025.98 557.533L2053.82 644.7H1998.15ZM2050.48 526.062H2001.44L1940.11 706.475H1978.44L1987.86 676.817H2064.07L2073.53 706.475H2111.82L2050.48 526.062Z" />
    <path d="M2315.99 673.283H2261.82V526.062H2226.99V673.283H2172.82V526.062H2138.03V706.475H2350.78V526.062H2315.99V673.283Z" />
    <path d="M2426.32 637.413V526.062H2391.48V706.475H2417.53L2496.65 595.121V706.475H2531.48V526.062H2505.44L2426.32 637.413Z" />
    <path d="M2674.65 598.325H2606.99V526.062H2572.2V706.475H2606.99V631.513H2674.65V706.475H2709.45V526.062H2674.65V598.325Z" />
    <path d="M2793.69 644.7L2821.48 557.529L2849.32 644.7H2793.69ZM2846.03 526.062H2796.98L2735.61 706.475H2773.94L2783.4 676.817H2859.57L2869.03 706.475H2907.36L2846.03 526.062Z" />
    <path d="M521.952 133.641C521.952 133.641 489.655 33.249 323.073 28.5264C256.336 20.9811 212.541 -5.50913 146.319 32.9791C80.0975 71.4673 49.495 142.429 52.6812 197.678C55.8675 252.927 56.1374 340.527 82.4569 436.866C96.2912 506.316 87.036 539.585 87.036 539.585L111.727 541.262C111.727 541.262 153.578 487.094 150.313 422.034C147.048 356.974 169.032 309.025 169.032 309.025C169.032 309.025 165.427 348.757 193.548 338.839C193.548 338.839 316.756 178.21 521.952 133.641Z" fill="#CF0014"/>
    <path d="M112.223 542.07C112.32 542.011 112.407 541.934 112.479 541.841C112.903 541.295 154.507 486.65 151.26 421.984C148.63 369.581 162.625 327.906 167.928 314.212C168.02 321.116 169.279 332.951 176.35 338.454C180.72 341.857 186.616 342.287 193.867 339.728C194.029 339.669 194.192 339.558 194.305 339.412C195.536 337.809 319.665 178.548 522.162 134.563C522.42 134.503 522.648 134.339 522.782 134.107C522.916 133.876 522.945 133.599 522.863 133.345C522.781 133.092 514.377 107.706 485.619 82.1422C459.135 58.6031 409.445 30.0258 323.107 27.577C306.319 25.6746 291.02 22.5757 276.225 19.5735C232.963 10.808 195.601 3.23587 145.848 32.1516C144.629 32.8601 143.428 33.5778 142.237 34.3056C75.9485 74.8061 48.8056 146.97 51.7359 197.731C52.2014 205.816 52.6068 214.598 53.0384 223.999C55.5777 279.189 59.0523 354.778 81.5451 437.114C95.1498 505.412 86.2158 538.995 86.1201 539.329C86.0441 539.602 86.0957 539.898 86.2611 540.129C86.4235 540.362 86.6843 540.51 86.9694 540.526L111.663 542.202C111.862 542.222 112.058 542.171 112.223 542.07ZM168.537 308.211C168.378 308.309 168.253 308.45 168.171 308.626C167.948 309.11 146.127 357.531 149.362 422.078C152.427 483.119 115.046 535.199 111.278 540.279L88.214 538.713C89.6316 532.312 95.7245 498.619 83.3816 436.68C60.9332 354.484 57.4625 279.014 54.9293 223.912C54.4969 214.504 54.0927 205.717 53.6247 197.622C50.6745 146.517 78.5927 73.4214 146.795 33.8002C195.927 5.24738 232.959 12.7499 275.839 21.4408C290.676 24.4457 306.016 27.5567 322.964 29.4702C370.382 30.8172 436.795 41.29 484.349 83.5621C509.528 105.947 518.857 128.068 520.689 132.941C321.642 176.62 198.37 331.134 192.964 338.032C186.49 340.259 181.289 339.898 177.508 336.956C168.222 329.738 169.953 309.31 169.973 309.104C170.013 308.646 169.718 308.223 169.267 308.101C169.017 308.036 168.752 308.08 168.537 308.211Z" fill="#780015"/>
    <path d="M416.035 54.7054C422.432 60.0328 428.826 65.3619 435.223 70.6893C367.099 40.5558 292.209 25.8443 217.749 27.9653C220.511 29.9543 223.278 31.9444 226.044 33.9346C210.836 33.1525 195.624 32.3693 180.416 31.5872C182.615 33.9279 184.814 36.2687 187.014 38.6094C143.531 50.6086 104.059 75.628 73.5831 108.844C89.1177 79.4646 113.287 52.1824 146.322 32.9828C212.543 -5.50546 256.338 20.9848 323.076 28.5301C436.263 31.7422 487.44 79.1091 508.63 109.151C500.92 102.941 492.6 97.3881 483.768 92.4631C461.191 79.8782 438.614 67.2933 416.035 54.7054Z" fill="#FB7364"/>
    <path d="M88.9508 481.561C91.583 484.888 94.22 488.217 96.8523 491.544C106.626 478.714 107.282 461.364 107.535 445.237C107.987 416.467 108.438 387.695 108.891 358.926C109.925 293.009 109.553 222.213 71.8953 168.1C78.4542 175.37 88.2384 183.312 96.8765 178.702C106.169 173.745 103.894 159.843 99.4234 150.306C94.9529 140.769 89.8555 128.655 96.7495 120.693C101.803 149.953 127.754 174.308 157.277 177.499C211.79 183.394 258.937 125.116 313.061 133.886C273.307 151.943 238.292 180.321 212.393 215.475C200.164 232.073 189.559 252.881 195.537 272.612C228.414 245.354 261.289 218.093 294.166 190.835C289.167 191.302 284.17 191.764 279.171 192.231C293.328 172.876 316.953 162.815 340.251 157.136C363.548 151.457 387.746 149.224 410.316 141.128C432.885 133.031 454.539 117.517 461.977 94.7199C465.045 85.3143 464.651 74.7609 461.519 65.3085C509.717 95.6519 521.957 133.644 521.957 133.644C316.76 178.213 193.548 338.841 193.548 338.841C165.426 348.759 169.031 309.027 169.031 309.027C169.031 309.027 147.045 356.973 150.312 422.036C153.577 487.096 111.726 541.264 111.726 541.264L87.0354 539.587C87.0354 539.587 92.2958 520.655 88.9508 481.561Z" fill="#A50017"/>
    <path d="M103.615 505.02C115.827 495.413 119.633 478.778 121.863 463.402C123.97 448.871 125.375 434.246 126.473 419.607C131.893 347.297 129.739 274.419 120.069 202.555C121.734 220.648 138.292 236.146 156.458 236.606C171.964 237 186.824 226.378 192.457 212.073C187.483 230.413 182.508 248.758 177.534 267.098C175.215 275.649 173.205 285.773 178.902 292.552C184.045 298.678 193.684 299.138 201.007 295.922C208.329 292.704 214.416 287.078 219.555 280.95C248.845 246.045 297.827 223.609 343.632 207.908C247.576 268.429 193.548 338.836 193.548 338.836C165.426 348.754 169.031 309.021 169.031 309.021C169.031 309.021 147.045 356.968 150.312 422.031C153.577 487.091 111.726 541.259 111.726 541.259L87.0351 539.582C87.0351 539.582 89.5865 530.338 90.0011 511.5C94.9333 510.288 99.5853 508.187 103.615 505.02Z" fill="#A50017"/>
    <path d="M28.3837 574.401C21.487 582.457 17.8911 592.914 16.4568 603.423C15.0206 613.928 15.6017 624.595 16.1869 635.182C17.4801 629.306 19.9434 623.695 23.3904 618.767C16.5097 643.868 18.2318 672.644 33.9603 693.378C29.0433 682.765 27.5983 670.93 26.2156 659.316C30.2347 678.903 42.0536 696.405 58.833 707.281C56.5972 700.865 55.7673 693.966 56.4128 687.203C62.3113 697.758 68.7183 708.841 79.2748 714.741C85.4469 718.189 92.7843 719.694 98.0486 724.414C104.128 717.651 108.591 709.442 110.965 700.663C113.143 708.495 112.829 715.059 109.468 722.462C125.434 713.371 141.847 703.898 153.006 689.298C150.786 696.898 147.34 704.141 142.84 710.652C153.019 703.097 162.135 693.915 168.557 682.987C174.978 672.059 178.603 659.304 177.658 646.663C182.385 653.492 185.275 661.581 185.944 669.861C191.683 653.686 194.692 636.259 192.249 619.272C189.807 602.285 181.51 585.777 167.803 575.449C179.928 579.224 190.615 587.438 197.388 598.179C197.482 592.429 195.535 586.829 193.018 581.657C181.959 558.929 158.796 542.544 133.684 539.679C140.295 536.643 148.077 536.258 154.956 538.618C148.896 534.061 140.976 532.741 133.394 532.717C125.809 532.695 118.246 533.822 110.666 533.538C92.5858 532.859 74.4295 528.059 56.4065 529.661C60.1141 531.575 63.8218 533.488 67.5265 535.403C52.4017 538.117 38.2442 545.953 27.9171 557.328C17.5852 568.702 11.1459 583.544 9.8954 598.86C13.4369 591.886 16.9801 584.915 20.5216 577.941C21.5243 575.964 22.6063 573.898 24.462 572.687C26.3176 571.476 27.1583 572.554 28.3837 574.401Z" fill="#F7FCF6"/>
    <path d="M143.334 711.459C143.361 711.443 143.38 711.428 143.406 711.411C154.641 703.073 163.379 693.669 169.378 683.461C175.569 672.925 178.839 661.225 178.749 650.13C182.289 656.162 184.434 662.941 184.999 669.929C185.037 670.375 185.377 670.734 185.823 670.794C186.265 670.848 186.691 670.591 186.841 670.168C193.306 651.941 195.441 634.765 193.187 619.128C190.845 602.837 183.454 588.241 172.64 578.248C182.387 582.472 190.933 589.713 196.588 598.676C196.813 599.032 197.243 599.199 197.644 599.087C198.066 598.955 198.326 598.606 198.339 598.189C198.422 593.057 197.003 587.672 193.872 581.236C183.254 559.417 161.387 543.257 137.467 539.25C143.039 537.546 149.127 537.617 154.652 539.509C155.095 539.659 155.588 539.463 155.796 539.056C156.017 538.642 155.901 538.134 155.531 537.854C150.118 533.784 142.877 531.794 133.398 531.768C129.962 531.757 126.492 531.982 123.134 532.204C119.053 532.471 114.832 532.746 110.708 532.589C103.668 532.327 96.476 531.417 89.5282 530.536C78.6489 529.158 67.3964 527.733 56.3287 528.717C55.9041 528.758 55.5641 529.063 55.4803 529.482C55.3977 529.897 55.6008 530.316 55.9768 530.507L64.6929 535.004C50.3338 538.17 37.1121 545.794 27.219 556.693C16.7127 568.259 10.2268 583.21 8.95463 598.783C8.91856 599.234 9.20515 599.65 9.64229 599.776C10.0824 599.899 10.5471 599.692 10.7471 599.291L21.3721 578.377C22.2728 576.604 23.293 574.596 24.9884 573.487C25.9282 572.905 26.1865 572.897 27.1996 574.343C21.142 581.672 17.108 591.663 15.5239 603.292C14.0727 613.912 14.67 624.751 15.246 635.23C15.2693 635.706 15.6428 636.085 16.1148 636.128C16.5921 636.161 17.0186 635.852 17.1215 635.384C17.9378 631.67 19.252 628.029 20.9904 624.618C15.3894 650.727 19.8073 676.281 33.2115 693.952C33.5049 694.34 34.0408 694.442 34.4554 694.193L34.4613 694.189C34.8711 693.939 35.0299 693.416 34.8255 692.983C31.6669 686.163 29.959 678.841 28.7843 671.444C34.522 686.402 44.8871 699.371 58.3218 708.079C58.6602 708.301 59.1002 708.28 59.4247 708.029C59.7445 707.777 59.8667 707.354 59.7332 706.97C57.8996 701.709 57.0277 696.067 57.1719 690.484C62.3096 699.569 68.7683 709.948 78.8172 715.567C81.1713 716.882 83.6993 717.925 86.147 718.935C90.3094 720.652 94.2416 722.27 97.4211 725.121C97.8091 725.471 98.4068 725.442 98.7598 725.052C104.145 719.062 108.283 711.95 110.855 704.317C112.042 710.629 111.324 716.1 108.608 722.072C108.437 722.448 108.529 722.89 108.834 723.165C109.137 723.441 109.585 723.492 109.943 723.289C123.745 715.435 139.224 706.621 150.523 693.815C148.399 699.583 145.566 705.046 142.057 710.118C141.797 710.5 141.845 711.017 142.18 711.339C142.495 711.636 142.969 711.683 143.334 711.459ZM177.161 645.848C176.86 646.032 176.684 646.366 176.707 646.729C177.581 658.464 174.398 671.167 167.736 682.504C162.659 691.146 155.559 699.208 146.598 706.522C149.726 701.197 152.181 695.515 153.918 689.563C154.046 689.124 153.843 688.652 153.435 688.448C153.025 688.241 152.532 688.348 152.253 688.721C141.625 702.624 125.79 712.056 111.399 720.265C113.789 713.805 113.913 707.712 111.88 700.403C111.766 699.991 111.39 699.706 110.965 699.707C110.537 699.709 110.166 699.997 110.049 700.408C107.795 708.746 103.619 716.565 97.9546 723.078C94.665 720.392 90.7048 718.754 86.8611 717.175C84.4681 716.187 81.9901 715.167 79.7354 713.909C69.0973 707.962 62.5218 696.192 57.2395 686.738C57.0352 686.377 56.6207 686.189 56.2184 686.273C55.8161 686.357 55.5113 686.693 55.4679 687.112C54.8971 693.077 55.4636 699.193 57.1099 704.969C41.8105 694.209 30.9461 677.647 27.1447 659.125C27.0388 658.627 26.5656 658.297 26.0637 658.376C25.556 658.46 25.2107 658.922 25.2722 659.427C26.3074 668.119 27.371 677.037 29.9755 685.548C19.8411 667.43 17.6652 643.239 24.3041 619.015C24.4273 618.567 24.2108 618.1 23.7956 617.904C23.3775 617.71 22.8784 617.841 22.616 618.22C20.2059 621.664 18.2508 625.482 16.8364 629.476C16.4165 620.87 16.2312 612.104 17.3991 603.551C18.9808 591.985 23.027 582.119 29.1071 575.019C29.3836 574.697 29.4107 574.231 29.1792 573.878C28.1457 572.319 26.7366 570.192 24.1008 571.802C24.0507 571.833 24.0005 571.864 23.9463 571.901C21.8278 573.284 20.6366 575.636 19.6817 577.519L11.4922 593.645C13.6182 580.418 19.5987 567.913 28.6271 557.971C38.8538 546.71 52.7281 539.027 67.705 536.342C68.1079 536.266 68.4188 535.947 68.4766 535.551C68.5386 535.149 68.3357 534.75 67.9757 534.566L59.8791 530.386C69.6665 529.937 79.627 531.196 89.2915 532.422C96.2832 533.308 103.514 534.223 110.638 534.49C114.863 534.646 119.132 534.37 123.262 534.098C126.589 533.883 130.026 533.658 133.397 533.667C139.56 533.688 144.714 534.555 148.976 536.316C143.653 535.729 138.174 536.575 133.292 538.817C132.906 538.968 132.684 539.407 132.751 539.827C132.821 540.246 133.159 540.574 133.583 540.619C158.289 543.441 181.286 559.709 192.171 582.069C194.489 586.832 195.827 590.97 196.279 594.832C189.382 585.332 179.275 578.02 168.091 574.541C167.651 574.404 167.174 574.603 166.967 575.013C166.754 575.426 166.869 575.927 167.237 576.204C179.967 585.801 188.743 601.55 191.313 619.407C193.359 633.624 191.699 649.158 186.382 665.638C185.2 658.655 182.493 651.976 178.445 646.121C178.198 645.769 177.75 645.626 177.347 645.767C177.279 645.789 177.22 645.812 177.161 645.848Z" fill="#ADAFB2"/>
    <path d="M19.5994 648.748C24.4121 638.706 29.2249 628.663 34.0347 618.623C33.4238 634.86 34.4964 651.162 37.2364 667.178C40.3064 653.362 43.3763 639.545 46.4462 625.729C48.2986 644.693 55.433 662.307 68.1861 676.461C70.9781 668.917 73.7713 661.367 76.5633 653.823C75.0635 662.084 80.202 671.051 88.0873 673.93C95.9726 676.81 105.685 673.269 109.861 665.988C107.845 668.892 109.606 673.318 112.797 674.843C115.988 676.367 119.91 675.477 122.843 673.499C125.774 671.522 127.918 668.604 130.005 665.75C135.578 658.118 141.151 650.486 146.72 642.856C149.191 646.072 151.663 649.283 154.134 652.498C156.418 639.199 155.201 625.317 150.641 612.62C154.297 618.027 157.956 623.432 161.612 628.838C159.005 597.011 139.137 567.13 110.799 552.412C110.124 559.518 109.449 566.618 108.774 573.724C105.596 565.017 102.415 556.312 99.2361 547.609C97.7871 559.459 96.338 571.309 94.8919 583.157C91.3263 574.651 90.6477 565.263 89.4974 556.11C88.3737 547.16 86.6033 537.954 81.511 530.533C91.2309 531.644 100.961 533.182 110.67 533.546C118.249 533.83 125.813 532.704 133.398 532.726C140.983 532.748 148.898 534.066 154.96 538.626C148.08 536.266 140.296 536.653 133.687 539.687C158.8 542.552 181.962 558.938 193.022 581.665C195.538 586.837 197.486 592.437 197.392 598.187C190.618 587.446 179.932 579.233 167.806 575.458C181.511 585.787 189.807 602.295 192.253 619.28C194.696 636.267 191.686 653.694 185.948 669.87C185.278 661.59 182.388 653.5 177.661 646.671C178.607 659.313 174.982 672.067 168.56 682.995C162.139 693.924 153.022 703.105 142.843 710.66C147.345 704.144 150.789 696.906 153.009 689.306C141.853 703.904 125.441 713.377 109.475 722.468C112.836 715.066 113.152 708.5 110.971 700.669C108.598 709.448 104.134 717.657 98.0551 724.42C92.7908 719.701 85.4534 718.195 79.2814 714.747C68.7248 708.848 62.3167 697.769 56.4194 687.209C55.7739 693.973 56.6038 700.871 58.8395 707.287C42.0601 696.412 30.2413 678.91 26.2222 659.323C27.6049 670.937 29.0498 682.772 33.9668 693.384C24.2962 680.631 19.9367 664.847 19.5994 648.748Z" fill="#E4E1DC"/>
    <path d="M663.765 272.77C663.765 272.77 639.594 228.841 572.422 236.801C593.921 239.675 593.921 239.675 594.331 242.089C594.74 244.508 469.2 248.64 360.746 357.591C355.953 363.723 356.126 356.147 362.386 348.05C333.416 367.884 322.646 387.806 322.646 387.806C322.646 387.806 317.075 384.804 323.099 376.321C299.051 405.955 277.681 473.146 254.164 483.073C252.008 497.703 260.922 502.61 260.922 502.61C260.922 502.61 233.636 501.53 224.065 482.234C219.456 501.323 235.699 515.802 235.699 515.802C235.699 515.802 210.899 500.631 208.3 473.375C203.002 487.706 198.395 493.48 198.395 493.48C198.395 493.48 202.379 450.37 185.626 426.582C188.317 451.564 184.934 461.765 184.934 461.765C184.934 461.765 157.897 383.616 189.135 337.904C220.373 292.192 259.899 253.993 285.421 237.658C266.632 243.222 259.421 248.365 259.421 248.365C259.421 248.365 302.804 218.899 324.437 203.463C294.847 211.926 284.466 213.094 284.466 213.094C284.466 213.094 334.549 195.807 371.593 171.696C408.636 147.586 444.684 148.487 470.058 127.068C467.334 138.348 464.014 142.596 464.014 142.596C464.014 142.596 492.02 125.485 500.036 126.503C493.062 134.46 489.414 138.171 489.414 138.171C489.414 138.171 540.247 119.685 552.363 118.939C552.363 118.939 544.761 129.499 536.025 133.359C570.491 125.614 595.022 134.292 601.603 145.063C591.191 142.548 587.42 144.852 587.42 144.852C587.42 144.852 647.851 175.973 661.76 209.633C647.61 199.787 641.207 197.783 641.207 197.783C641.207 197.783 681.368 229.486 663.765 272.77Z" fill="#F7FCF6"/>
    <path d="M664.262 273.578C664.433 273.474 664.568 273.318 664.645 273.125C678.678 238.63 656.277 211.151 646.247 201.131C649.586 202.877 654.538 205.767 661.218 210.411C661.561 210.655 662.028 210.65 662.356 210.372C662.684 210.107 662.799 209.66 662.639 209.272C650.037 178.778 600.731 150.921 589.89 145.086C591.898 144.734 595.555 144.585 601.377 145.988C601.747 146.077 602.134 145.934 602.366 145.626C602.594 145.317 602.61 144.898 602.41 144.571C595.747 133.665 572.442 125.768 541.425 131.304C547.951 126.625 552.874 119.851 553.128 119.498C553.343 119.2 553.366 118.806 553.189 118.485C553.01 118.165 552.662 117.973 552.3 117.996C541.981 118.636 504.892 131.631 492.834 135.938C494.631 134.001 497.286 131.084 500.742 127.138C500.975 126.87 501.042 126.501 500.919 126.175C500.792 125.848 500.499 125.614 500.148 125.569C493.454 124.719 474.276 135.457 466.65 139.922C467.878 137.419 469.508 133.353 470.973 127.296C471.07 126.897 470.898 126.483 470.548 126.268C470.198 126.053 469.758 126.095 469.44 126.35C456.612 137.171 440.679 142.351 423.801 147.837C407.628 153.09 389.34 159.029 371.072 170.906C334.602 194.675 284.657 212.031 284.156 212.204C283.678 212.37 283.431 212.841 283.539 213.309C283.644 213.779 284.09 214.098 284.571 214.043C284.969 213.999 294.106 212.923 319.403 205.876C297.997 220.988 262.58 245.076 259.149 247.407C258.988 247.514 258.894 247.579 258.867 247.6C258.444 247.903 258.342 248.491 258.639 248.917C258.939 249.342 259.605 249.497 259.951 249.156C259.966 249.147 260.017 249.112 260.104 249.055C261.027 248.446 266.797 244.795 279.447 240.541C254.696 257.971 218.532 293.209 188.354 337.37C172.05 361.223 171.758 393.887 174.38 417.085C177.215 442.149 183.974 461.88 184.042 462.077C184.172 462.463 184.538 462.717 184.946 462.715C185.35 462.707 185.716 462.451 185.839 462.064C185.971 461.664 188.91 452.463 186.958 430.402C200.88 454.13 197.492 492.985 197.457 493.391C197.416 493.809 197.657 494.204 198.047 494.358C198.434 494.514 198.888 494.395 199.14 494.071C199.316 493.85 203.158 488.964 207.858 477.181C212.225 502.281 234.966 516.466 235.208 516.61C235.625 516.869 236.171 516.754 236.468 516.366C236.762 515.972 236.702 515.417 236.338 515.093C236.187 514.959 221.994 502.041 224.501 484.977C235.097 502.332 259.799 503.512 260.89 503.554C261.329 503.57 261.722 503.285 261.841 502.864C261.96 502.443 261.773 501.99 261.392 501.778C261.055 501.591 253.285 497.07 255.036 483.728C269 477.318 281.815 452.248 295.349 425.677C303.132 410.403 311.134 394.687 319.366 382.891C319.326 383.588 319.383 384.258 319.534 384.894C320.141 387.499 322.12 388.59 322.201 388.638C322.661 388.887 323.239 388.712 323.485 388.254C323.586 388.067 333.459 370.191 358.845 351.713C356.715 355.549 355.665 359.305 357.15 360.462C358.736 361.7 360.816 359.048 361.497 358.175C423.11 296.297 499.188 258.003 587.553 244.438C593.825 243.477 594.641 243.315 595.087 242.706C595.234 242.503 595.314 242.183 595.272 241.929C594.825 239.283 594.759 238.89 581.013 237C610.667 235.337 630.737 244.295 642.667 252.522C656.791 262.266 662.883 273.117 662.941 273.227C663.121 273.547 663.464 273.738 663.831 273.716C663.979 273.706 664.132 273.658 664.262 273.578ZM640.713 196.977C640.572 197.064 640.452 197.186 640.368 197.346C640.154 197.752 640.26 198.25 640.619 198.533C640.72 198.613 650.644 206.539 658.302 219.582C668.18 236.412 669.951 253.586 663.577 270.648C661.298 267.17 655.126 258.838 643.823 251.022C630.514 241.816 607.304 231.715 572.31 235.859C571.827 235.915 571.476 236.316 571.474 236.795C571.468 237.276 571.823 237.679 572.295 237.743C589.848 240.089 592.598 240.502 593.199 241.572C592.139 241.818 589.84 242.17 587.256 242.567C498.478 256.197 422.047 294.663 360.067 356.927C359.188 358.047 358.623 358.526 358.319 358.732C358.251 357.401 359.538 353.278 363.13 348.634C363.418 348.263 363.394 347.74 363.071 347.403C362.75 347.064 362.22 346.991 361.848 347.271C336.635 364.534 324.981 382.113 322.382 386.381C321.998 385.972 321.566 385.337 321.36 384.431C320.913 382.428 321.78 379.817 323.873 376.874C324.17 376.458 324.081 375.876 323.673 375.572C323.265 375.262 322.702 375.315 322.36 375.73C312.423 387.976 302.88 406.71 293.652 424.827C280.714 450.227 267.306 476.486 253.795 482.207C253.489 482.329 253.273 482.611 253.225 482.943C251.745 492.986 255.262 498.644 257.899 501.369C250.598 500.42 232.251 496.601 224.915 481.817C224.737 481.46 224.355 481.253 223.957 481.297C223.573 481.338 223.234 481.63 223.142 482.018C220.363 493.526 225.012 503.461 229.293 509.672C221.869 503.101 210.903 490.634 209.247 473.291C209.205 472.851 208.866 472.496 208.427 472.44C207.988 472.384 207.573 472.638 207.412 473.052C204.293 481.492 201.402 486.952 199.585 489.969C200.154 479.025 200.522 446.088 186.403 426.04C186.157 425.684 185.697 425.548 185.294 425.697C184.888 425.848 184.636 426.257 184.687 426.684C186.467 443.25 185.547 453.302 184.759 458.088C182.739 451.443 178.383 435.658 176.26 416.835C173.679 393.969 173.953 361.806 189.917 338.444C222.252 291.127 261.438 254.135 285.93 238.462C286.329 238.207 286.479 237.697 286.282 237.268C286.084 236.838 285.601 236.618 285.149 236.753C279.427 238.447 274.775 240.099 271.067 241.583C285.429 231.776 310.329 214.704 324.986 204.246C325.364 203.976 325.489 203.478 325.29 203.061C325.089 202.645 324.617 202.436 324.172 202.562C311.191 206.274 301.892 208.582 295.563 210C312.4 203.514 345.715 189.671 372.102 172.5C390.133 160.751 407.539 155.117 424.386 149.642C440.48 144.412 455.735 139.453 468.411 129.623C465.949 138.463 463.282 141.984 463.253 142.022C462.975 142.382 462.992 142.894 463.299 143.237C463.604 143.577 464.108 143.654 464.497 143.416C471.517 139.127 489.87 128.76 497.861 127.538C491.928 134.256 488.758 137.484 488.728 137.515C488.418 137.83 488.366 138.319 488.607 138.694C488.846 139.066 489.311 139.224 489.729 139.073C490.211 138.901 535.364 122.517 550.213 120.153C547.665 123.281 541.917 129.737 535.635 132.498C535.163 132.713 534.966 133.198 535.117 133.664C535.271 134.129 535.749 134.4 536.227 134.294C567.179 127.339 591.046 133.711 599.379 143.625C590.52 141.944 587.073 143.961 586.919 144.055C586.624 144.235 586.453 144.558 586.467 144.898C586.48 145.238 586.676 145.552 586.978 145.708C587.561 146.007 643.603 175.153 659.474 206.934C647.328 198.771 641.734 196.965 641.484 196.887C641.222 196.796 640.94 196.839 640.713 196.977Z" fill="#ADAFB2"/>
    <path d="M198.396 493.48C198.396 493.48 202.38 450.37 185.627 426.582C188.318 451.564 184.935 461.765 184.935 461.765C184.935 461.765 157.898 383.616 189.136 337.904C209.515 308.083 233.403 281.507 254.645 262.066C243.022 279.642 231.398 297.219 219.775 314.795C222.406 314.536 225.034 314.278 227.667 314.022C216.739 329.886 211.724 349.725 213.805 368.876C219.189 362.684 224.567 356.49 229.948 350.3C230.715 371.987 231.484 393.677 232.252 415.364C234.872 409.374 237.492 403.384 240.11 397.396C245.373 412.068 250.638 426.736 255.902 441.408C261.449 426.047 266.996 410.685 272.545 395.321C276.229 404.412 279.911 413.499 283.594 422.59C289.693 377.674 320.775 336.981 362.502 319.277C368.05 310.478 379.118 307.732 385.158 316.205C388.324 303.488 396.041 291.95 406.591 284.173C406.431 290.882 406.275 297.593 406.115 304.303C428.307 282.128 456.801 266.331 487.365 259.265C485.08 256.458 482.795 253.647 480.51 250.841C497.371 246.985 514.231 243.13 531.092 239.274C525.449 236.936 519.805 234.598 514.164 232.263C532.218 222.581 554.608 221.408 573.577 229.14C569.839 224.804 566.1 220.468 562.36 216.129C577.857 218.253 593.358 220.375 608.855 222.498C600.27 216.54 591.683 210.583 583.101 204.627C605.684 206.09 627.857 213.492 646.789 225.891C635.157 204.141 614.47 187.421 590.766 180.606C603.483 184.25 616.199 187.891 628.913 191.537C607.729 177.826 586.543 164.111 565.357 150.397C576.915 150.931 588.471 151.467 600.029 152.001C618.519 163.099 651.877 185.722 661.762 209.641C647.612 199.795 641.209 197.791 641.209 197.791C641.209 197.791 681.374 229.487 663.768 272.773C663.768 272.773 639.597 228.844 572.423 236.801C593.922 239.675 593.922 239.675 594.334 242.092C594.742 244.511 469.203 248.643 360.749 357.594C355.955 363.726 356.129 356.149 362.389 348.053C333.419 367.887 322.649 387.808 322.649 387.808C322.649 387.808 317.078 384.807 323.102 376.324C299.054 405.957 277.682 473.146 254.167 483.076C252.011 497.706 260.925 502.613 260.925 502.613C260.925 502.613 233.639 501.533 224.068 482.237C219.459 501.326 235.702 515.804 235.702 515.804C235.702 515.804 210.902 500.634 208.302 473.378C203.006 487.704 198.396 493.48 198.396 493.48Z" fill="#E4E1DC"/>
</svg>
