<svg viewBox="0 0 34 33" xmlns="http://www.w3.org/2000/svg">
<path d="M1.05762 27.1858L0.0576172 27.1858L1.05762 27.1858ZM9.02916 19.2143L9.02916 18.2143L9.02916 19.2143ZM24.9722 19.2143V18.2143V19.2143ZM2.05762 27.1858C2.05762 25.3368 2.79212 23.5636 4.09953 22.2562L2.68532 20.842C1.00283 22.5245 0.0576172 24.8064 0.0576172 27.1858H2.05762ZM4.09953 22.2562C5.40695 20.9488 7.18019 20.2143 9.02916 20.2143L9.02916 18.2143C6.64976 18.2143 4.36781 19.1595 2.68532 20.842L4.09953 22.2562ZM9.02916 20.2143H24.9722V18.2143H9.02916V20.2143ZM24.9722 20.2143C26.8212 20.2143 28.5944 20.9488 29.9019 22.2562L31.3161 20.842C29.6336 19.1595 27.3516 18.2143 24.9722 18.2143V20.2143ZM29.9019 22.2562C31.2093 23.5636 31.9438 25.3368 31.9438 27.1858H33.9438C33.9438 24.8064 32.9986 22.5245 31.3161 20.842L29.9019 22.2562ZM31.9438 27.1858C31.9438 27.9777 31.6292 28.7371 31.0693 29.2971L32.4835 30.7113C33.4185 29.7763 33.9438 28.5081 33.9438 27.1858H31.9438ZM31.0693 29.2971C30.5093 29.857 29.7499 30.1716 28.958 30.1716V32.1716C30.2803 32.1716 31.5485 31.6463 32.4835 30.7113L31.0693 29.2971ZM28.958 30.1716H5.04339V32.1716H28.958V30.1716ZM5.04339 30.1716C4.25151 30.1716 3.49207 29.857 2.93213 29.2971L1.51792 30.7113C2.45293 31.6463 3.72108 32.1716 5.04339 32.1716V30.1716ZM2.93213 29.2971C2.37219 28.7371 2.05762 27.9777 2.05762 27.1858L0.0576172 27.1858C0.0576172 28.5081 0.582902 29.7763 1.51792 30.7113L2.93213 29.2971ZM21.9794 7.06435C21.9794 9.81398 19.7503 12.043 17.0007 12.043V14.043C20.8549 14.043 23.9794 10.9186 23.9794 7.06435H21.9794ZM17.0007 12.043C14.2511 12.043 12.022 9.81398 12.022 7.06435H10.022C10.022 10.9186 13.1465 14.043 17.0007 14.043V12.043ZM12.022 7.06435C12.022 4.31471 14.2511 2.08569 17.0007 2.08569V0.0856934C13.1465 0.0856934 10.022 3.21014 10.022 7.06435H12.022ZM17.0007 2.08569C19.7503 2.08569 21.9794 4.31471 21.9794 7.06435H23.9794C23.9794 3.21014 20.8549 0.0856934 17.0007 0.0856934V2.08569Z"/>
</svg>
