<svg xmlns="http://www.w3.org/2000/svg" version="1.1" xmlns:xlink="http://www.w3.org/1999/xlink" width="1024" height="1024"><svg xmlns="http://www.w3.org/2000/svg" version="1.1" xmlns:xlink="http://www.w3.org/1999/xlink" width="1024" height="1024"><svg width="1024" height="1024" viewBox="0 0 1024 1024" fill="none" xmlns="http://www.w3.org/2000/svg">
<g clip-path="url(#clip0_2592_4861)">
<rect width="1024" height="1024" rx="100" fill="white"></rect>
<path d="M555.951 456.961C546.558 439.696 537.165 422.458 527.903 405.132C526.448 402.458 524.64 401.177 521.685 400.741C516.173 399.935 510.704 398.847 505.28 397.737C503.119 397.296 501.708 397.666 500.561 399.684C499.018 402.383 497.209 404.911 495.225 407.928C486.537 402.612 478.247 397.521 469.559 392.21C473.484 385.74 477.32 379.411 481.157 373.077C481.73 372.153 482.745 371.245 482.789 370.307C482.833 368.647 482.259 366.969 481.995 365.3C480.363 365.828 478.026 365.868 477.276 366.978C473.219 372.919 469.691 379.199 465.766 385.202C464.664 386.836 462.723 387.885 461.268 389.294C460.65 389.902 459.592 391.038 459.813 391.421C461.356 394.61 458.887 396.486 457.608 398.671C454.388 404.031 451.08 409.307 447.817 414.623C446.45 416.794 445.083 419.256 448.038 420.934C450.64 422.388 452.183 420.498 453.506 418.287C457.563 411.439 461.797 404.674 466.119 397.6C474.718 402.833 483.009 407.898 491.741 413.218C489.272 417.129 486.934 420.855 484.332 424.946C490.021 431.451 495.754 438.067 501.487 444.66C506.603 450.491 511.63 456.349 516.878 462.07C518.466 463.81 518.863 465.113 517.628 467.359C511.675 478.471 505.986 489.729 500.032 500.841C499.415 501.99 497.695 503.272 496.504 503.272C472.205 503.377 447.862 503.303 423.518 503.25C423.165 503.25 422.768 503.051 421.842 502.792V485.126C421.842 471.927 415.315 465.316 402.129 465.307C373.067 465.294 343.961 465.307 314.899 465.307H310.312V277.043H314.634C362.703 277.043 410.817 277.073 458.93 276.968C461.973 276.963 463.385 278.038 464.752 280.637C489.007 327.009 513.35 373.329 537.649 419.657C545.191 434.05 552.776 448.43 560.361 462.823C561.067 464.206 561.685 465.633 561.729 467.364C559.788 463.898 557.848 460.445 555.951 456.961ZM455.623 543.214C449.493 543.324 443.407 543.13 437.321 543.271C434.322 543.342 433.264 542.258 433.22 539.259C432.955 526.782 432.867 526.786 445.436 526.786H450.331C454.653 526.795 459.019 526.896 463.34 526.755C466.251 526.663 467.574 527.706 467.486 530.737C467.177 545.817 469.559 542.963 455.623 543.214ZM403.056 544.068C402.967 548.186 399.659 550.868 395.47 551.177C392.912 551.366 390.355 551.212 386.959 551.212C392.251 537.317 397.278 524.073 402.306 510.825L403.143 511.028C403.143 522.043 403.32 533.062 403.056 544.068ZM377.521 548.221C376.683 550.45 375.625 551.494 373.155 551.304C370.465 551.102 367.775 551.26 364.247 551.26C367.069 543.813 369.583 537.132 372.097 530.455C377.874 515.278 383.607 500.092 389.384 484.919C390.001 483.232 390.178 480.801 392.912 481.457C395.691 482.131 398.381 483.122 401.027 484.219C401.291 484.329 401.071 486.205 400.718 487.13C393.001 507.5 385.195 527.839 377.521 548.221ZM349.077 551.309C346.828 551.093 344.534 551.265 341.624 551.265C342.682 548.384 343.52 546.138 344.358 543.905C351.767 524.254 359.264 504.633 366.54 484.928C367.555 482.144 368.877 481.079 371.788 481.352C374.302 481.59 376.86 481.4 380.035 481.4C376.815 489.988 373.773 498.066 370.73 506.139C365.526 519.827 360.234 533.458 355.295 547.231C354.06 550.582 352.34 551.626 349.077 551.309ZM326.982 551.309C324.601 551.014 322.131 551.252 318.823 551.252C322.087 542.707 325.042 534.885 327.997 527.063C333.245 513.252 338.581 499.484 343.564 485.589C344.799 482.153 346.475 480.867 350.047 481.347C352.164 481.638 354.369 481.4 357.103 481.4C356.618 482.994 356.309 484.237 355.868 485.426C348.062 506.077 340.168 526.707 332.451 547.398C331.437 550.195 330.202 551.701 326.982 551.309ZM312.341 540.558C309.959 536.07 307.578 531.578 305.197 527.107C306.916 522.598 308.592 518.118 310.312 513.652C313.884 504.17 317.544 494.705 321.028 485.17C322.043 482.378 323.322 480.933 326.541 481.343C328.922 481.647 331.392 481.405 334.391 481.405C333.862 483.127 333.509 484.505 333.024 485.822C326.1 504.064 319.132 522.276 312.341 540.558ZM302.33 506.729C301.227 509.662 300.125 512.595 299.022 515.524C296.641 511.085 294.26 506.641 291.922 502.179C294.171 496.216 296.465 490.257 298.714 484.285C299.464 482.259 300.346 481.149 302.727 481.347C305.55 481.581 308.372 481.4 311.944 481.4C308.548 490.319 305.461 498.519 302.33 506.729ZM285.836 490.389C284.293 487.425 282.794 484.448 281.294 481.471L281.647 481.413C283.94 481.352 286.233 481.405 289.232 481.405C288.086 484.439 286.939 487.394 285.836 490.389ZM655.177 185.086C654.736 177.59 648.474 171.794 641.198 172.006C633.965 172.217 628.32 178.004 628.099 185.483C628.055 187.381 628.055 189.283 628.055 191.182V523.963C616.06 523.963 604.638 523.994 593.261 523.897C592.467 523.892 591.717 522.928 590.967 522.408C591.673 521.99 592.378 521.245 593.128 521.21C596.039 521.069 598.993 521.153 602.698 521.153C564.286 448.267 526.228 375.971 487.905 303.204C491.168 303.847 493.726 304.349 496.416 304.882V269.701C486.978 270.335 480.805 274.907 478.07 284.49C475.557 279.773 473.219 275.796 471.323 271.625C470.044 268.921 468.457 267.987 465.414 267.996C411.479 268.098 357.544 268.071 303.565 268.071H298.846V465.303C290.114 465.303 281.824 465.307 273.577 465.303C271.769 465.303 270.137 465.439 268.594 465.642C268.064 465.593 267.623 465.492 267.05 465.496C230.138 465.677 193.27 465.598 156.358 465.598V465.554C119.622 465.554 82.9308 465.668 46.2392 465.435C40.5944 465.4 38.3013 466.699 39.1833 472.658C40.5504 482.021 41.3882 491.442 43.9901 500.625C50.2523 522.716 62.6887 539.162 85.4445 545.914C89.3695 547.072 90.7804 548.939 91.7506 552.388C94.5289 562.504 98.5862 572.101 105.025 580.465C116.976 596.083 131.882 607.983 152.301 608.304C195.74 608.983 239.222 608.503 282.661 608.586C286.719 608.591 287.645 607.595 285.572 603.852C282.176 597.699 278.957 591.467 275.694 585.244C263.301 585.2 250.953 585.12 238.561 585.028C214.526 584.852 190.492 584.825 166.413 584.469C142.643 584.121 124.385 574.801 114.551 553.436C112.61 549.257 110.449 545.156 118.696 545.094C161.694 544.755 204.692 545.169 247.689 544.738C249.63 544.72 251.571 544.729 253.511 544.72L253.423 544.548C249.762 538.03 246.455 531.305 243.192 524.588C242.839 523.879 242.442 523.315 242.045 522.76C197.283 522.805 152.565 522.395 107.847 523.126C91.8389 523.39 71.2439 509.319 66.3929 494.71C63.5264 486.029 63.6147 485.399 72.567 485.399C128.971 485.386 185.376 485.377 241.78 485.373H249.807L274.944 534.044L275.164 535.119C285.043 555.022 294.965 574.898 304.8 594.823C305.417 596.06 305.991 597.302 306.608 598.536C312.914 579.219 332.362 564.988 353.178 566.261C378.844 567.834 396.661 587.873 397.763 610.683H472.249C469.382 578.567 479.173 551.974 507.044 534.696C535.136 517.286 563.404 520.955 590.614 538.18C590.879 536.462 591.055 535.176 591.232 533.96H628.188V637.729H655.177V633.347C655.221 486.368 655.221 339.389 655.221 192.41C655.221 189.971 655.309 187.522 655.177 185.086Z" fill="#131313"></path>
<path d="M155.875 87V336.605H201.359V132.418H824.923V512.571C824.923 630.168 765.265 737.574 666.261 799.323L513.119 884.953L360.948 799.879C307.295 766.43 265.388 719.914 237.966 665.87H187.757C218.271 736.004 269.672 796.507 337.765 838.953L513.119 937L689.444 838.398C802.755 767.743 870.406 645.932 870.406 512.571V87H155.875Z" fill="#F7931D"></path>
<path d="M588.361 596.428C587.919 574.18 569.397 556.208 547.516 556.751C524.618 557.316 507.334 575.614 507.864 598.718C508.35 620.141 526.916 637.671 548.798 637.353C570.812 637.035 588.803 618.402 588.361 596.428ZM615.37 599.089C614.044 637.265 581.995 666.292 544.068 664.182C506.538 662.09 478.733 630.12 480.943 591.944C482.933 556.544 515.733 527.662 551.052 529.821C590.041 532.208 616.475 564.108 615.37 599.089Z" fill="#131313"></path>
<path d="M662.336 208.301H669.751V631.155H674.562C699.058 631.155 723.51 630.833 748.006 631.314C757.584 631.5 767.118 633.407 776.651 634.763C777.622 634.904 778.372 636.666 779.211 637.673L778.505 638.613H662.336V208.301Z" fill="#131313"></path>
<path d="M417.184 458.087C417.006 459.13 416.828 460.269 416.605 461.531H345.562C342.262 432.297 338.962 403.124 335.617 373.465H345.294C345.607 370.249 345.696 367.445 346.142 364.702C346.722 361.306 348.283 358.577 352.252 358.024C356.221 357.468 358.941 359.641 359.833 362.879C361.706 369.877 363.847 377.036 364.07 384.174C364.471 401.556 363.847 418.964 363.668 436.359C363.624 438.773 363.668 441.183 363.668 444.044C370.001 443.098 376.244 441.757 382.577 441.31C393.905 440.508 405.277 440.206 416.649 439.798C418.255 439.741 419.905 440.158 421.51 440.578C424.81 441.463 428.556 442.248 429.315 446.204C430.162 450.66 427.442 454.126 424.32 456.716C422.804 457.96 419.949 457.623 417.184 458.087Z" fill="#131313"></path>
<path d="M561.392 596.827C561.305 604.349 555.196 610.353 547.691 610.279C540.011 610.205 533.859 603.935 533.946 596.299C534.033 588.959 540.448 582.75 547.778 582.833C555.545 582.92 561.48 589.007 561.392 596.827Z" fill="#131313"></path>
<path d="M377.881 611.27C377.573 597.948 366.529 587.192 353.416 587.513C339.687 587.851 329.347 598.809 329.655 612.641C329.963 625.466 341.095 635.958 354.164 635.769C367.364 635.58 378.145 624.424 377.881 611.27ZM394.03 612.865C393.238 635.716 374.052 653.098 351.347 651.832C328.862 650.58 312.23 631.441 313.55 608.585C314.738 587.39 334.363 570.096 355.528 571.393C378.849 572.821 394.69 591.92 394.03 612.865Z" fill="#131313"></path>
<path d="M362.174 612.66C362.13 617.267 358.391 620.949 353.763 620.905C349.09 620.856 345.307 617.018 345.352 612.331C345.396 607.836 349.313 604.029 353.852 604.083C358.614 604.136 362.219 607.867 362.174 612.66Z" fill="#131313"></path>
</g>
<defs>
<clipPath id="clip0_2592_4861">
<rect width="1024" height="1024" fill="white"></rect>
</clipPath>
</defs>
</svg></svg><style>@media (prefers-color-scheme: light) { :root { filter: none; } }
@media (prefers-color-scheme: dark) { :root { filter: none; } }
</style></svg>